<?xml version="1.0" encoding="UTF-8"?>
<svg id="Capa_1" xmlns="http://www.w3.org/2000/svg" version="1.1" xmlns:xlink="http://www.w3.org/1999/xlink" viewBox="0 0 110 56.19">
  <!-- Generator: Adobe Illustrator 30.5.1, SVG Export Plug-In . SVG Version: 2.1.4 Build 3)  -->
  <defs>
    <style>
      .st0 {
        fill: #003b4a;
      }

      .st1 {
        fill: #e1392b;
      }

      .st2 {
        fill: #fff;
      }

      .st3 {
        fill: none;
      }

      .st4 {
        fill: url(#Degradado_sin_nombre_2);
      }

      .st5 {
        fill: url(#Degradado_sin_nombre);
      }

      .st6 {
        display: none;
      }

      .st7 {
        fill: #ed1c24;
      }

      .st8 {
        fill: #ef940b;
      }

      .st9 {
        clip-path: url(#clippath);
      }
    </style>
    <clipPath id="clippath">
      <rect class="st3" x="0" y=".19" width="110" height="56"/>
    </clipPath>
    <radialGradient id="Degradado_sin_nombre" data-name="Degradado sin nombre" cx="-891.06" cy="974.32" fx="-891.06" fy="974.32" r="1" gradientTransform="translate(15912.7846 17271.148) scale(17.8327 -17.6991)" gradientUnits="userSpaceOnUse">
      <stop offset=".17" stop-color="#fdb913"/>
      <stop offset=".66" stop-color="#f37021"/>
    </radialGradient>
    <radialGradient id="Degradado_sin_nombre_2" data-name="Degradado sin nombre 2" cx="-889.49" cy="972.69" fx="-889.49" fy="972.69" r="1" gradientTransform="translate(15421.4055 16738.2382) scale(17.3181 -17.1884)" gradientUnits="userSpaceOnUse">
      <stop offset=".41" stop-color="#962f34"/>
      <stop offset=".99" stop-color="#ed1c24"/>
    </radialGradient>
  </defs>
  <g class="st6">
    <g class="st9">
      <g>
        <path class="st0" d="M1.23,30.72c-.15-.3-1.21-3.78-1.21-3.44v10.66c0,1.86,1.47,3.44,3.35,3.49,1.95.05,3.55-1.5,3.55-3.42v-.3c0-.21-.12-.41-.31-.51-2.51-1.4-4.02-3.85-5.38-6.48Z"/>
        <path class="st7" d="M6.92,14.49V3.61C6.92,1.72,5.38.19,3.47.19S.03,1.72.03,3.61v21.97c.29-4.58,2.88-8.77,6.9-11.09h0Z"/>
        <path class="st5" d="M13.92,19.49c3.87,0,7,3.11,7,6.95,0,2.56-1.4,4.79-3.47,6,4.21-2.26,6.49-7.13,5.23-11.93-1.19-4.54-5.13-7.72-9.66-7.86-.87.06-1.75.19-2.62.42-1.25.32-2.42.81-3.48,1.42v11.94c0-3.84,3.13-6.95,7-6.95h0Z"/>
        <path class="st4" d="M27.39,22.95c-1.71-6.51-7.84-10.72-14.37-10.3,4.53.15,8.46,3.32,9.66,7.86,1.26,4.8-1.02,9.67-5.23,11.93-1.04.6-2.24.95-3.53.95-3.87,0-7-3.11-7-6.95v-11.95C2.9,16.81.31,21,.03,25.58c-.09,1.43.04,2.89.43,4.35,1.94,7.38,9.55,11.8,16.98,9.87,7.44-1.93,11.89-9.48,9.95-16.86Z"/>
        <path class="st0" d="M51.38,25.75c0-1.6-.23-3.07-.7-4.39-.46-1.32-1.14-2.45-2.04-3.39-.9-.94-1.99-1.66-3.28-2.18-1.29-.52-2.75-.78-4.4-.78-1.44,0-2.8.22-4.08.67-1.29.45-2.42,1.08-3.41,1.92-.99.83-1.78,1.83-2.38,2.98-.6,1.16-.93,2.45-.99,3.88-.03.33-.04.67-.04,1.02v1.6c0,3.77.97,6.62,2.92,8.55,1.85,1.84,4.52,2.8,8,2.89.02,0,.33,0,.67,0,3.35-.06,5.62-.66,7.71-3.19.76-.92.63-2.29-.3-3.05-.93-.76-2.31-.62-3.07.3-.89,1.08-1.58,1.55-4.42,1.6-.17,0-.42,0-.93-.03-.82-.06-1.54-.2-2.15-.41-.87-.3-1.56-.71-2.09-1.22-.52-.52-.9-1.14-1.12-1.87-.22-.73-.34-1.52-.34-2.38h16.43v-2.54h0ZM34.96,24.14c0-.83.17-1.55.52-2.16.34-.61.8-1.11,1.37-1.51.57-.4,1.21-.69,1.93-.87.72-.18,1.45-.27,2.2-.27.81,0,1.55.12,2.22.36.67.24,1.26.56,1.75.98.49.42.88.92,1.14,1.51.27.59.4,1.25.4,1.96h-11.53Z"/>
        <path class="st0" d="M61.74,34.21c-1.85,0-2.78-.89-2.78-2.67V8.88c0-1.34-1.1-2.42-2.45-2.42s-2.45,1.09-2.45,2.42v24.12c0,.8.14,1.54.43,2.23.28.68.69,1.27,1.21,1.76.52.49,1.14.87,1.84,1.14.7.27,1.47.4,2.31.4.51,0,1.12-.05,1.84-.16.72-.1,1.32-.23,1.8-.38v-3.79h-1.75Z"/>
        <path class="st0" d="M84.68,16.62c-1.32-.56-2.75-.97-4.29-1.22-1.54-.25-3.03-.38-4.47-.38-3.74,0-6.59.89-8.55,2.67-1.96,1.78-2.94,4.54-2.94,8.28v2.32c0,3,.81,5.37,2.42,7.1,1.62,1.74,3.96,2.61,7.05,2.61,1.23,0,2.3-.28,3.23-.85.93-.56,1.81-1.26,2.65-2.09v1.69h0s0,.01,0,.01c-.02,2.76-.31,3.5-1.72,4.48-.99.7-5.37,2-9.95-.2-1.21-.58-2.67-.08-3.26,1.13-.59,1.2-.08,2.65,1.13,3.24,2.55,1.22,5.16,1.7,7.52,1.7,3.18,0,5.9-.86,7.38-1.9,3.5-2.45,3.78-5.39,3.78-8.69v-19.89ZM77.21,32.65c-.94.68-2.04,1.02-3.3,1.02-.99,0-1.78-.13-2.38-.38-.6-.25-1.06-.62-1.39-1.11-.33-.49-.55-1.08-.65-1.78-.1-.7-.16-1.49-.16-2.38v-1.96c0-1.25.11-2.29.34-3.14.22-.85.6-1.54,1.12-2.07.52-.53,1.21-.92,2.06-1.16.85-.24,1.91-.36,3.16-.36.72,0,1.35.05,1.91.16.55.1,1.17.27,1.86.51v10.11c-.78,1.01-1.64,1.86-2.58,2.54Z"/>
        <path class="st0" d="M98.78,38.53c-1.8,0-3.38-.3-4.76-.91-1.38-.61-2.53-1.44-3.46-2.49-.93-1.05-1.63-2.29-2.11-3.72s-.72-2.97-.72-4.63v-.85c.03-1.57.31-3.03.83-4.37.52-1.34,1.26-2.49,2.22-3.45.96-.97,2.11-1.72,3.46-2.27,1.35-.55,2.86-.82,4.53-.82,1.59,0,3.06.27,4.42.82,1.36.55,2.55,1.3,3.57,2.25,1.02.95,1.81,2.09,2.38,3.43.57,1.34.85,2.78.85,4.32v.94c0,1.66-.25,3.21-.74,4.63-.49,1.43-1.22,2.67-2.18,3.72-.96,1.05-2.13,1.89-3.52,2.49-1.39.61-2.98.91-4.78.91ZM105.38,26.77v-.89c0-1.96-.52-3.55-1.57-4.77-1.05-1.22-2.71-1.83-4.98-1.83s-3.92.61-4.94,1.83c-1.02,1.22-1.53,2.82-1.53,4.81v1.02c0,1.07.09,2.04.27,2.92.18.88.51,1.64.99,2.29.48.65,1.14,1.16,1.97,1.51.84.36,1.91.53,3.23.53s2.39-.19,3.23-.56c.84-.37,1.5-.89,2-1.56.49-.67.84-1.45,1.03-2.36.19-.91.29-1.89.29-2.96Z"/>
        <path class="st0" d="M6.96,55.99v.06h-1.15c-.06-.16-.12-.3-.14-.46-.59.34-1.55.6-2.3.6-1.71,0-2.69-.81-2.69-2.34,0-1.4,1.21-2.34,3.2-2.34.68,0,1.12.04,1.58.11v-.31c0-1.23-.69-1.78-1.84-1.78-.73,0-1.49.13-2.24.4l-.36-.9c.95-.37,1.81-.54,2.69-.54,1.09,0,1.77.29,2.24.74.49.49.67,1.14.67,1.98v2.57c0,.7.07,1.5.33,2.21h0ZM3.52,55.16c.66,0,1.39-.16,1.95-.47v-2.14c-.49-.09-.79-.13-1.55-.13-1.37,0-2.03.54-2.03,1.43s.56,1.31,1.62,1.31Z"/>
        <path class="st0" d="M11.02,50.51v5.53h-1.18v-7.41h1.08v.87c.72-.47,1.85-.88,2.72-1.01l.2,1.04c-.89.14-1.98.5-2.82.98Z"/>
        <path class="st0" d="M21.58,55.99v.06h-1.15c-.06-.16-.12-.3-.14-.46-.59.34-1.55.6-2.3.6-1.71,0-2.69-.81-2.69-2.34,0-1.4,1.21-2.34,3.2-2.34.68,0,1.12.04,1.58.11v-.31c0-1.23-.69-1.78-1.84-1.78-.73,0-1.49.13-2.24.4l-.36-.9c.95-.37,1.81-.54,2.69-.54,1.09,0,1.77.29,2.24.74.49.49.67,1.14.67,1.98v2.57c0,.7.07,1.5.33,2.21h0ZM18.13,55.16c.66,0,1.39-.16,1.95-.47v-2.14c-.49-.09-.79-.13-1.55-.13-1.37,0-2.03.54-2.03,1.43s.56,1.31,1.62,1.31Z"/>
        <path class="st0" d="M35.33,51.11v4.93h-1.18v-4.83c0-1.04-.69-1.71-1.74-1.71-.65,0-1.42.2-1.94.51v6.03h-1.16v-4.91c0-1.16-.59-1.64-1.62-1.64-.63,0-1.41.21-2.05.61v5.93h-1.18v-7.41h1.08v.53c.65-.4,1.57-.67,2.46-.67.73,0,1.48.26,2.03.73.73-.46,1.71-.73,2.7-.73.85,0,1.52.26,1.95.68.47.47.66,1.07.66,1.94h0Z"/>
        <path class="st0" d="M44.76,52.72h-5.63c.16,1.55,1.24,2.42,2.73,2.42.75,0,1.59-.17,2.27-.44l.3.93c-.86.36-1.68.56-2.69.56-2.14,0-3.81-1.4-3.81-3.85s1.81-3.85,3.58-3.85c1.93,0,3.29,1.4,3.29,3.58,0,.2-.01.53-.04.66h0ZM39.15,51.75h4.45c-.04-1.44-.93-2.24-2.08-2.24-1.22,0-2.17.74-2.37,2.24h0Z"/>
        <path class="st0" d="M52.19,48.96l-.33.91c-.66-.24-1.31-.38-2.1-.38-.95,0-1.54.37-1.54.95s.29.94,1.62,1.28c2.07.53,2.82,1.17,2.82,2.31,0,1.31-1.14,2.15-3.05,2.15-.95,0-1.91-.19-2.85-.48l.33-.91c.82.26,1.69.4,2.51.4,1.25,0,1.88-.4,1.88-1.1,0-.54-.47-.97-2.03-1.35-1.88-.47-2.41-1.16-2.41-2.2,0-1.17,1.04-2.05,2.7-2.05.95,0,1.67.19,2.43.47h0Z"/>
      </g>
    </g>
  </g>
  <g>
    <path class="st2" d="M.55,29.73c-.23-.89-.37-1.77-.42-2.65,0,0,0,0,0,0v10.66c0,1.86,1.46,3.44,3.32,3.49,1.81.05,3.32-1.31,3.5-3.06-3.06-1.79-5.43-4.74-6.4-8.44"/>
    <path class="st1" d="M6.96,14.3V3.42c0-1.89-1.53-3.42-3.42-3.42S.12,1.53.12,3.42v21.96c.28-4.58,2.85-8.76,6.84-11.08"/>
    <path class="st8" d="M13.91,19.3c3.84,0,6.94,3.11,6.94,6.94,0,2.56-1.38,4.79-3.44,6,4.18-2.25,6.44-7.13,5.19-11.92-1.18-4.53-5.09-7.71-9.58-7.86-.86.06-1.73.19-2.6.42-1.24.32-2.4.81-3.45,1.42v11.94c0-3.84,3.11-6.94,6.94-6.94"/>
    <path class="st2" d="M51.07,25.55c0-1.6-.23-3.06-.69-4.39-.46-1.32-1.14-2.45-2.03-3.38-.89-.94-1.97-1.66-3.25-2.18-1.28-.52-2.73-.78-4.36-.78-1.42,0-2.78.22-4.05.67-1.28.45-2.4,1.08-3.38,1.91-.98.83-1.77,1.83-2.36,2.98-.59,1.16-.92,2.45-.98,3.87-.03.33-.04.67-.04,1.02v1.6c0,3.77.96,6.62,2.89,8.55,1.84,1.84,4.49,2.8,7.94,2.89.02,0,.33,0,.67,0,3.32-.06,5.58-.66,7.65-3.19.76-.92.62-2.29-.3-3.04-.92-.76-2.29-.62-3.04.3-.88,1.07-1.56,1.55-4.38,1.6-.17,0-.42,0-.93-.03-.81-.06-1.53-.2-2.13-.4-.86-.3-1.55-.7-2.07-1.22-.52-.52-.89-1.14-1.11-1.87-.22-.73-.33-1.52-.33-2.38h16.3v-2.54ZM34.78,23.95c0-.83.17-1.55.51-2.16.34-.61.79-1.11,1.36-1.51.56-.4,1.2-.69,1.91-.87.71-.18,1.44-.27,2.18-.27.8,0,1.54.12,2.2.36.67.24,1.25.56,1.74.98.49.42.87.92,1.14,1.51.27.59.4,1.25.4,1.96h-11.44Z"/>
    <path class="st2" d="M61.34,34.01c-1.84,0-2.76-.89-2.76-2.67v-14.19h0v-8.46c0-1.34-1.09-2.42-2.43-2.42s-2.43,1.08-2.43,2.42v24.12c0,.8.14,1.54.42,2.23.28.68.68,1.27,1.2,1.76.52.49,1.13.87,1.83,1.14.7.27,1.46.4,2.29.4.5,0,1.11-.05,1.83-.16.71-.1,1.31-.23,1.78-.38v-3.78h-1.74Z"/>
    <path class="st2" d="M84.11,16.42c-1.31-.56-2.72-.97-4.25-1.22-1.53-.25-3.01-.38-4.43-.38-3.71,0-6.54.89-8.48,2.67-1.94,1.78-2.92,4.54-2.92,8.28v2.32c0,3,.8,5.37,2.4,7.1,1.6,1.74,3.93,2.6,6.99,2.6,1.22,0,2.29-.28,3.21-.85.92-.56,1.8-1.26,2.63-2.09v1.69s0,0,0,.01c0,0,0,0,0,0-.02,2.76-.31,3.5-1.7,4.48-.99.7-5.33,2-9.87-.2-1.2-.58-2.65-.08-3.24,1.12-.58,1.2-.08,2.65,1.12,3.24,2.53,1.22,5.12,1.7,7.46,1.7,3.15,0,5.85-.86,7.32-1.9,3.47-2.45,3.75-5.39,3.75-8.69v-19.88ZM76.7,32.45c-.94.68-2.03,1.02-3.27,1.02-.98,0-1.77-.13-2.36-.38-.59-.25-1.05-.62-1.38-1.11-.33-.49-.54-1.08-.65-1.78-.1-.7-.16-1.49-.16-2.38v-1.96c0-1.25.11-2.29.33-3.14.22-.85.59-1.54,1.11-2.07.52-.53,1.2-.92,2.05-1.16.85-.24,1.89-.36,3.14-.36.71,0,1.34.05,1.89.16.55.1,1.16.27,1.85.51v7.71h0v2.39c-.77,1.01-1.62,1.86-2.56,2.54"/>
    <path class="st2" d="M98.1,38.33c-1.78,0-3.35-.3-4.72-.91-1.37-.61-2.51-1.44-3.43-2.49-.92-1.05-1.62-2.29-2.09-3.72-.48-1.42-.71-2.97-.71-4.63v-.85c.03-1.57.3-3.03.82-4.36.52-1.34,1.25-2.49,2.2-3.45.95-.96,2.09-1.72,3.43-2.27,1.34-.55,2.83-.82,4.5-.82,1.57,0,3.03.27,4.39.82,1.35.55,2.53,1.3,3.54,2.25,1.01.95,1.8,2.09,2.36,3.43.56,1.34.85,2.78.85,4.32v.94c0,1.66-.25,3.21-.73,4.63-.49,1.42-1.21,2.66-2.16,3.72-.95,1.05-2.11,1.89-3.5,2.49-1.38.61-2.96.91-4.74.91M104.64,26.57v-.89c0-1.96-.52-3.55-1.56-4.76-1.04-1.22-2.69-1.83-4.94-1.83s-3.89.61-4.9,1.83c-1.01,1.22-1.51,2.82-1.51,4.81v1.02c0,1.07.09,2.04.27,2.92.18.88.5,1.64.98,2.29.47.65,1.13,1.16,1.96,1.51.83.36,1.9.53,3.21.53s2.37-.19,3.21-.56c.83-.37,1.49-.89,1.98-1.56.49-.67.83-1.45,1.02-2.36.19-.91.29-1.89.29-2.96"/>
    <path class="st1" d="M27.27,22.75c-1.7-6.51-7.78-10.72-14.25-10.29,4.49.15,8.4,3.32,9.58,7.86,1.25,4.79-1.01,9.67-5.19,11.92-1.03.6-2.22.95-3.5.95-3.84,0-6.94-3.11-6.94-6.94v.8-12.74C2.97,16.62.41,20.8.12,25.38v1.66-1.66c-.09,1.43.04,2.89.42,4.35,1.93,7.38,9.47,11.8,16.85,9.87,7.38-1.93,11.8-9.47,9.87-16.85"/>
    <path class="st2" d="M7.01,55.78v.06h-1.14c-.06-.16-.11-.3-.14-.46-.58.34-1.54.6-2.28.6-1.7,0-2.67-.81-2.67-2.34,0-1.4,1.2-2.34,3.18-2.34.67,0,1.11.04,1.57.11v-.31c0-1.23-.68-1.78-1.82-1.78-.73,0-1.48.13-2.22.4l-.36-.9c.94-.37,1.8-.54,2.67-.54,1.08,0,1.75.29,2.22.74.48.48.67,1.14.67,1.98v2.57c0,.7.07,1.5.33,2.21M3.58,54.95c.66,0,1.38-.16,1.94-.47v-2.14c-.48-.09-.78-.13-1.54-.13-1.35,0-2.01.54-2.01,1.43s.56,1.31,1.61,1.31"/>
    <path class="st2" d="M11.02,50.31v5.53h-1.17v-7.41h1.07v.87c.71-.47,1.84-.88,2.69-1.01l.2,1.04c-.88.14-1.97.5-2.79.98"/>
    <path class="st2" d="M21.5,55.78v.06h-1.14c-.06-.16-.11-.3-.14-.46-.58.34-1.54.6-2.28.6-1.7,0-2.67-.81-2.67-2.34,0-1.4,1.2-2.34,3.18-2.34.67,0,1.11.04,1.57.11v-.31c0-1.23-.68-1.78-1.82-1.78-.73,0-1.48.13-2.22.4l-.36-.9c.94-.37,1.8-.54,2.67-.54,1.08,0,1.75.29,2.22.74.48.48.67,1.14.67,1.98v2.57c0,.7.07,1.5.33,2.21M18.08,54.95c.66,0,1.38-.16,1.94-.47v-2.14c-.48-.09-.78-.13-1.54-.13-1.35,0-2.01.54-2.01,1.43s.56,1.31,1.61,1.31"/>
    <path class="st2" d="M35.14,50.9v4.93h-1.17v-4.83c0-1.04-.68-1.71-1.72-1.71-.64,0-1.41.2-1.92.51v6.03h-1.15v-4.9c0-1.15-.58-1.64-1.61-1.64-.63,0-1.4.21-2.04.61v5.93h-1.17v-7.41h1.07v.53c.64-.4,1.55-.67,2.44-.67.73,0,1.47.26,2.01.73.73-.46,1.7-.73,2.68-.73.84,0,1.51.26,1.94.68.47.47.66,1.07.66,1.94"/>
    <path class="st2" d="M44.51,52.51h-5.59c.16,1.55,1.23,2.42,2.71,2.42.74,0,1.58-.17,2.25-.44l.3.93c-.85.36-1.67.56-2.66.56-2.12,0-3.78-1.4-3.78-3.85s1.8-3.85,3.55-3.85c1.91,0,3.26,1.4,3.26,3.58,0,.2-.01.53-.04.66M38.93,51.55h4.42c-.04-1.44-.93-2.24-2.07-2.24-1.21,0-2.15.74-2.35,2.24"/>
    <path class="st2" d="M51.88,48.75l-.33.91c-.66-.24-1.3-.38-2.08-.38-.94,0-1.53.37-1.53.96s.29.94,1.61,1.28c2.05.53,2.79,1.17,2.79,2.31,0,1.31-1.13,2.15-3.02,2.15-.94,0-1.9-.19-2.82-.48l.33-.91c.81.26,1.68.4,2.49.4,1.24,0,1.87-.4,1.87-1.1,0-.54-.47-.97-2.01-1.35-1.87-.47-2.39-1.15-2.39-2.19,0-1.17,1.03-2.05,2.68-2.05.94,0,1.65.19,2.41.47"/>
  </g>
</svg>